<?xml version="1.0" encoding="utf-8"?>
<svg xmlns="http://www.w3.org/2000/svg" viewBox="222.841 196.9 194.642 96.226" shape-rendering="geometricPrecision">
  <defs>
    <clipPath clipPathUnits="userSpaceOnUse" id="clipPath2">
      <path d="M 0,841.89 H 595.275 V 0 H 0 Z" transform="translate(-356.24321,-396.78911)" id="path2"/>
    </clipPath>
    <clipPath clipPathUnits="userSpaceOnUse" id="clipPath4">
      <path d="M 0,841.89 H 595.275 V 0 H 0 Z" transform="translate(-225.07321,-433.46001)" id="path4"/>
    </clipPath>
    <clipPath clipPathUnits="userSpaceOnUse" id="clipPath6">
      <path d="m 289.255,436.494 c -15.862,-2.634 -34.19,-5.268 -58.513,-0.231 v 0 c -4.832,1.436 -7.029,-0.511 -5.669,-2.803 v 0 c 27.544,-46.383 61.312,-37.017 92.668,-27.653 v 0 c 17.508,5.229 34.263,10.458 48.765,5.984 v 0 c -19.883,22.133 -35.292,27.789 -51.199,27.79 v 0 c -8.311,0 -16.757,-1.544 -26.052,-3.087" transform="translate(-354.16801,-407.87401)" id="path6"/>
    </clipPath>
    <clipPath clipPathUnits="userSpaceOnUse" id="clipPath8">
      <path d="M 0,841.89 H 595.275 V 0 H 0 Z" transform="translate(-225.07321,-433.46001)" id="path8"/>
    </clipPath>
    <clipPath clipPathUnits="userSpaceOnUse" id="clipPath10">
      <path d="M 0,841.89 H 595.275 V 0 H 0 Z" transform="translate(-269.07321,-429.94241)" id="path10"/>
    </clipPath>
    <clipPath clipPathUnits="userSpaceOnUse" id="clipPath12">
      <path d="M 0,841.89 H 595.275 V 0 H 0 Z" transform="translate(-274.36231,-421.24511)" id="path12"/>
    </clipPath>
    <clipPath clipPathUnits="userSpaceOnUse" id="clipPath14">
      <path d="M 0,841.89 H 595.275 V 0 H 0 Z" transform="translate(-286.6279,-419.07811)" id="path14"/>
    </clipPath>
    <clipPath clipPathUnits="userSpaceOnUse" id="clipPath16">
      <path d="M 0,841.89 H 595.275 V 0 H 0 Z" transform="translate(-293.3506,-421.24511)" id="path16"/>
    </clipPath>
    <clipPath clipPathUnits="userSpaceOnUse" id="clipPath18">
      <path d="M 0,841.89 H 595.275 V 0 H 0 Z" transform="translate(-304.34181,-430.03811)" id="path18"/>
    </clipPath>
    <clipPath clipPathUnits="userSpaceOnUse" id="clipPath20">
      <path d="M 0,841.89 H 595.275 V 0 H 0 Z" transform="translate(-268.66111,-429.94241)" id="path20"/>
    </clipPath>
    <clipPath clipPathUnits="userSpaceOnUse" id="clipPath22">
      <path d="M 0,841.89 H 595.275 V 0 H 0 Z" transform="translate(-273.9502,-421.24511)" id="path22"/>
    </clipPath>
    <clipPath clipPathUnits="userSpaceOnUse" id="clipPath24">
      <path d="M 0,841.89 H 595.275 V 0 H 0 Z" transform="translate(-286.21581,-419.07811)" id="path24"/>
    </clipPath>
    <clipPath clipPathUnits="userSpaceOnUse" id="clipPath26">
      <path d="M 0,841.89 H 595.275 V 0 H 0 Z" transform="translate(-292.93851,-421.24511)" id="path26"/>
    </clipPath>
    <clipPath clipPathUnits="userSpaceOnUse" id="clipPath28">
      <path d="M 0,841.89 H 595.275 V 0 H 0 Z" transform="translate(-303.92971,-430.03811)" id="path28"/>
    </clipPath>
    <clipPath clipPathUnits="userSpaceOnUse" id="clipPath30">
      <path d="M 0,841.89 H 595.275 V 0 H 0 Z" transform="translate(-314.38571,-420.37991)" id="path30"/>
    </clipPath>
    <clipPath clipPathUnits="userSpaceOnUse" id="clipPath32">
      <path d="M 0,841.89 H 595.275 V 0 H 0 Z" transform="translate(-322.06741,-422.17631)" id="path32"/>
    </clipPath>
    <clipPath clipPathUnits="userSpaceOnUse" id="clipPath34">
      <path d="M 0,841.89 H 595.275 V 0 H 0 Z" transform="translate(-329.90531,-420.15531)" id="path34"/>
    </clipPath>
    <clipPath clipPathUnits="userSpaceOnUse" id="clipPath36">
      <path d="M 0,841.89 H 595.275 V 0 H 0 Z" transform="translate(-314.09671,-420.37991)" id="path36"/>
    </clipPath>
    <clipPath clipPathUnits="userSpaceOnUse" id="clipPath38">
      <path d="M 0,841.89 H 595.275 V 0 H 0 Z" transform="translate(-321.77731,-422.17631)" id="path38"/>
    </clipPath>
    <clipPath clipPathUnits="userSpaceOnUse" id="clipPath40">
      <path d="M 0,841.89 H 595.275 V 0 H 0 Z" transform="translate(-329.61431,-420.15531)" id="path40"/>
    </clipPath>
    <clipPath clipPathUnits="userSpaceOnUse" id="clipPath42">
      <path d="M 0,841.89 H 595.275 V 0 H 0 Z" transform="translate(-334.72361,-430.59671)" id="path42"/>
    </clipPath>
    <clipPath clipPathUnits="userSpaceOnUse" id="clipPath44">
      <path d="M 0,841.89 H 595.275 V 0 H 0 Z" transform="translate(-326.24711,-436.66551)" id="path44"/>
    </clipPath>
    <clipPath clipPathUnits="userSpaceOnUse" id="clipPath46">
      <path d="M 0,841.89 H 595.275 V 0 H 0 Z" transform="translate(-316.86231,-433.29641)" id="path46"/>
    </clipPath>
    <clipPath clipPathUnits="userSpaceOnUse" id="clipPath48">
      <path d="M 0,841.89 H 595.275 V 0 H 0 Z" transform="translate(-289.5625,-395.04881)" id="path48"/>
    </clipPath>
    <clipPath clipPathUnits="userSpaceOnUse" id="clipPath50">
      <path d="M 0,841.89 H 595.275 V 0 H 0 Z" transform="translate(-291.90621,-395.00581)" id="path50"/>
    </clipPath>
    <clipPath clipPathUnits="userSpaceOnUse" id="clipPath52">
      <path d="M 0,841.89 H 595.275 V 0 H 0 Z" transform="translate(-293.94631,-394.50001)" id="path52"/>
    </clipPath>
    <clipPath clipPathUnits="userSpaceOnUse" id="clipPath54">
      <path d="M 0,841.89 H 595.275 V 0 H 0 Z" transform="translate(-298.4824,-394.75291)" id="path54"/>
    </clipPath>
    <clipPath clipPathUnits="userSpaceOnUse" id="clipPath56">
      <path d="M 0,841.89 H 595.275 V 0 H 0 Z" transform="translate(-301.99611,-393.90131)" id="path56"/>
    </clipPath>
    <clipPath clipPathUnits="userSpaceOnUse" id="clipPath58">
      <path d="M 0,841.89 H 595.275 V 0 H 0 Z" transform="translate(-302.49901,-393.45701)" id="path58"/>
    </clipPath>
    <clipPath clipPathUnits="userSpaceOnUse" id="clipPath60">
      <path d="M 0,841.89 H 595.275 V 0 H 0 Z" id="path60"/>
    </clipPath>
    <clipPath clipPathUnits="userSpaceOnUse" id="clipPath62">
      <path d="M 0,841.89 H 595.275 V 0 H 0 Z" transform="translate(-306.73831,-394.50001)" id="path62"/>
    </clipPath>
    <clipPath clipPathUnits="userSpaceOnUse" id="clipPath64">
      <path d="M 0,841.89 H 595.275 V 0 H 0 Z" transform="translate(-309.46191,-395.11521)" id="path64"/>
    </clipPath>
    <clipPath clipPathUnits="userSpaceOnUse" id="clipPath66">
      <path d="M 0,841.89 H 595.275 V 0 H 0 Z" id="path66"/>
    </clipPath>
    <clipPath clipPathUnits="userSpaceOnUse" id="clipPath68">
      <path d="M 0,841.89 H 595.275 V 0 H 0 Z" transform="translate(-315.46191,-393.53901)" id="path68"/>
    </clipPath>
    <clipPath clipPathUnits="userSpaceOnUse" id="clipPath70">
      <path d="M 0,841.89 H 595.275 V 0 H 0 Z" id="path70"/>
    </clipPath>
    <clipPath clipPathUnits="userSpaceOnUse" id="clipPath72">
      <path d="M 0,841.89 H 595.275 V 0 H 0 Z" transform="translate(-319.53221,-394.50001)" id="path72"/>
    </clipPath>
    <clipPath clipPathUnits="userSpaceOnUse" id="clipPath74">
      <path d="M 0,841.89 H 595.275 V 0 H 0 Z" id="path74"/>
    </clipPath>
    <clipPath clipPathUnits="userSpaceOnUse" id="clipPath76">
      <path d="M 0,841.89 H 595.275 V 0 H 0 Z" transform="translate(-323.84961,-394.50001)" id="path76"/>
    </clipPath>
    <clipPath clipPathUnits="userSpaceOnUse" id="clipPath78">
      <path d="M 0,841.89 H 595.275 V 0 H 0 Z" transform="translate(-328.36331,-394.78511)" id="path78"/>
    </clipPath>
    <clipPath clipPathUnits="userSpaceOnUse" id="clipPath80">
      <path d="M 0,841.89 H 595.275 V 0 H 0 Z" id="path80"/>
    </clipPath>
    <clipPath clipPathUnits="userSpaceOnUse" id="clipPath82">
      <path d="M 0,841.89 H 595.275 V 0 H 0 Z" transform="translate(-332.79591,-393.27541)" id="path82"/>
    </clipPath>
    <clipPath clipPathUnits="userSpaceOnUse" id="clipPath84">
      <path d="M 0,841.89 H 595.275 V 0 H 0 Z" transform="translate(-333.36521,-397.07611)" id="path84"/>
    </clipPath>
    <clipPath clipPathUnits="userSpaceOnUse" id="clipPath86">
      <path d="M 0,841.89 H 595.275 V 0 H 0 Z" transform="translate(-338.10451,-394.76361)" id="path86"/>
    </clipPath>
    <clipPath clipPathUnits="userSpaceOnUse" id="clipPath88">
      <path d="M 0,841.89 H 595.275 V 0 H 0 Z" transform="translate(-322.54791,-425.84811)" id="path88"/>
    </clipPath>
    <clipPath clipPathUnits="userSpaceOnUse" id="clipPath90">
      <path d="M 0,841.89 H 595.275 V 0 H 0 Z" transform="translate(-321.65141,-426.78321)" id="path90"/>
    </clipPath>
    <clipPath clipPathUnits="userSpaceOnUse" id="clipPath92">
      <path d="M 0,841.89 H 595.275 V 0 H 0 Z" transform="translate(-320.46091,-428.09961)" id="path92"/>
    </clipPath>
    <clipPath clipPathUnits="userSpaceOnUse" id="clipPath94">
      <path d="M 0,841.89 H 595.275 V 0 H 0 Z" transform="translate(-317.90041,-429.65821)" id="path94"/>
    </clipPath>
    <clipPath clipPathUnits="userSpaceOnUse" id="clipPath96">
      <path d="M 0,841.89 H 595.275 V 0 H 0 Z" transform="translate(-317.66601,-430.61231)" id="path96"/>
    </clipPath>
    <clipPath clipPathUnits="userSpaceOnUse" id="clipPath98">
      <path d="M 0,841.89 H 595.275 V 0 H 0 Z" transform="translate(-317.37501,-431.67721)" id="path98"/>
    </clipPath>
    <clipPath clipPathUnits="userSpaceOnUse" id="clipPath100">
      <path d="M 0,841.89 H 595.275 V 0 H 0 Z" transform="translate(-317.41311,-432.54881)" id="path100"/>
    </clipPath>
    <clipPath clipPathUnits="userSpaceOnUse" id="clipPath102">
      <path d="M 0,841.89 H 595.275 V 0 H 0 Z" transform="translate(-323.36331,-426.56051)" id="path102"/>
    </clipPath>
    <clipPath clipPathUnits="userSpaceOnUse" id="clipPath104">
      <path d="M 0,841.89 H 595.275 V 0 H 0 Z" transform="translate(-322.55761,-427.57471)" id="path104"/>
    </clipPath>
    <clipPath clipPathUnits="userSpaceOnUse" id="clipPath106">
      <path d="M 0,841.89 H 595.275 V 0 H 0 Z" transform="translate(-321.41211,-428.93121)" id="path106"/>
    </clipPath>
    <clipPath clipPathUnits="userSpaceOnUse" id="clipPath108">
      <path d="M 0,841.89 H 595.275 V 0 H 0 Z" transform="translate(-320.21191,-431.67771)" id="path108"/>
    </clipPath>
    <clipPath clipPathUnits="userSpaceOnUse" id="clipPath110">
      <path d="M 0,841.89 H 595.275 V 0 H 0 Z" transform="translate(-319.29691,-432.03811)" id="path110"/>
    </clipPath>
    <clipPath clipPathUnits="userSpaceOnUse" id="clipPath112">
      <path d="M 0,841.89 H 595.275 V 0 H 0 Z" transform="translate(-318.28131,-432.46881)" id="path112"/>
    </clipPath>
    <clipPath clipPathUnits="userSpaceOnUse" id="clipPath114">
      <path d="M 0,841.89 H 595.275 V 0 H 0 Z" transform="translate(-324.77441,-430.25591)" id="path114"/>
    </clipPath>
    <clipPath clipPathUnits="userSpaceOnUse" id="clipPath116">
      <path d="M 0,841.89 H 595.275 V 0 H 0 Z" transform="translate(-324.89161,-431.18261)" id="path116"/>
    </clipPath>
    <clipPath clipPathUnits="userSpaceOnUse" id="clipPath118">
      <path d="M 0,841.89 H 595.275 V 0 H 0 Z" transform="translate(-325.08891,-432.44731)" id="path118"/>
    </clipPath>
    <clipPath clipPathUnits="userSpaceOnUse" id="clipPath120">
      <path d="M 0,841.89 H 595.275 V 0 H 0 Z" transform="translate(-324.79981,-434.58891)" id="path120"/>
    </clipPath>
    <clipPath clipPathUnits="userSpaceOnUse" id="clipPath122">
      <path d="M 0,841.89 H 595.275 V 0 H 0 Z" transform="translate(-325.22851,-435.15281)" id="path122"/>
    </clipPath>
    <clipPath clipPathUnits="userSpaceOnUse" id="clipPath124">
      <path d="M 0,841.89 H 595.275 V 0 H 0 Z" transform="translate(-325.69341,-435.79881)" id="path124"/>
    </clipPath>
    <clipPath clipPathUnits="userSpaceOnUse" id="clipPath126">
      <path d="M 0,841.89 H 595.275 V 0 H 0 Z" transform="translate(-326.19821,-436.17331)" id="path126"/>
    </clipPath>
    <clipPath clipPathUnits="userSpaceOnUse" id="clipPath128">
      <path d="M 0,841.89 H 595.275 V 0 H 0 Z" transform="translate(-325.54301,-430.12211)" id="path128"/>
    </clipPath>
    <clipPath clipPathUnits="userSpaceOnUse" id="clipPath130">
      <path d="M 0,841.89 H 595.275 V 0 H 0 Z" transform="translate(-325.74611,-431.03371)" id="path130"/>
    </clipPath>
    <clipPath clipPathUnits="userSpaceOnUse" id="clipPath132">
      <path d="M 0,841.89 H 595.275 V 0 H 0 Z" transform="translate(-325.98631,-432.29101)" id="path132"/>
    </clipPath>
    <clipPath clipPathUnits="userSpaceOnUse" id="clipPath134">
      <path d="M 0,841.89 H 595.275 V 0 H 0 Z" transform="translate(-326.98051,-434.21001)" id="path134"/>
    </clipPath>
    <clipPath clipPathUnits="userSpaceOnUse" id="clipPath136">
      <path d="M 0,841.89 H 595.275 V 0 H 0 Z" transform="translate(-326.76761,-434.88571)" id="path136"/>
    </clipPath>
    <clipPath clipPathUnits="userSpaceOnUse" id="clipPath138">
      <path d="M 0,841.89 H 595.275 V 0 H 0 Z" transform="translate(-326.54791,-435.65041)" id="path138"/>
    </clipPath>
    <clipPath clipPathUnits="userSpaceOnUse" id="clipPath140">
      <path d="M 0,841.89 H 595.275 V 0 H 0 Z" transform="translate(-327.37011,-427.91891)" id="path140"/>
    </clipPath>
    <clipPath clipPathUnits="userSpaceOnUse" id="clipPath142">
      <path d="M 0,841.89 H 595.275 V 0 H 0 Z" transform="translate(-328.30961,-428.40771)" id="path142"/>
    </clipPath>
    <clipPath clipPathUnits="userSpaceOnUse" id="clipPath144">
      <path d="M 0,841.89 H 595.275 V 0 H 0 Z" transform="translate(-329.61521,-429.03421)" id="path144"/>
    </clipPath>
    <clipPath clipPathUnits="userSpaceOnUse" id="clipPath146">
      <path d="M 0,841.89 H 595.275 V 0 H 0 Z" transform="translate(-331.45901,-430.75391)" id="path146"/>
    </clipPath>
    <clipPath clipPathUnits="userSpaceOnUse" id="clipPath148">
      <path d="M 0,841.89 H 595.275 V 0 H 0 Z" transform="translate(-332.24121,-430.67381)" id="path148"/>
    </clipPath>
    <clipPath clipPathUnits="userSpaceOnUse" id="clipPath150">
      <path d="M 0,841.89 H 595.275 V 0 H 0 Z" transform="translate(-333.12211,-430.60941)" id="path150"/>
    </clipPath>
    <clipPath clipPathUnits="userSpaceOnUse" id="clipPath152">
      <path d="M 0,841.89 H 595.275 V 0 H 0 Z" transform="translate(-333.77051,-430.32231)" id="path152"/>
    </clipPath>
    <clipPath clipPathUnits="userSpaceOnUse" id="clipPath154">
      <path d="M 0,841.89 H 595.275 V 0 H 0 Z" transform="translate(-327.69631,-427.01811)" id="path154"/>
    </clipPath>
    <clipPath clipPathUnits="userSpaceOnUse" id="clipPath156">
      <path d="M 0,841.89 H 595.275 V 0 H 0 Z" transform="translate(-328.67191,-427.40631)" id="path156"/>
    </clipPath>
    <clipPath clipPathUnits="userSpaceOnUse" id="clipPath158">
      <path d="M 0,841.89 H 595.275 V 0 H 0 Z" transform="translate(-329.99511,-427.98241)" id="path158"/>
    </clipPath>
    <clipPath clipPathUnits="userSpaceOnUse" id="clipPath160">
      <path d="M 0,841.89 H 595.275 V 0 H 0 Z" transform="translate(-332.38381,-428.19921)" id="path160"/>
    </clipPath>
    <clipPath clipPathUnits="userSpaceOnUse" id="clipPath162">
      <path d="M 0,841.89 H 595.275 V 0 H 0 Z" transform="translate(-332.89361,-428.87061)" id="path162"/>
    </clipPath>
    <clipPath clipPathUnits="userSpaceOnUse" id="clipPath164">
      <path d="M 0,841.89 H 595.275 V 0 H 0 Z" transform="translate(-333.48341,-429.60741)" id="path164"/>
    </clipPath>
  </defs>
  <g id="svg1" transform="matrix(1, 0, 0, 1, 14.5537, 3.02715)">
    <g id="layer-MC0" style="display:none" transform="matrix(1, 0, 0, 1, -88.459581, -322.280583)"/>
    <g id="layer-MC1" transform="matrix(1, 0, 0, 1, -88.459581, -322.280583)"/>
    <g id="layer-MC2" transform="matrix(1, 0, 0, 1, -88.459581, -322.280583)">
      <path id="path1" d="M 0,0 C -38.962,76.215 -92.401,28.713 -129.401,48.468 -85.702,-11.115 -65.444,24.396 -5.203,-1.495 -0.786,-3.801 1.235,-2.416 0,0" style="fill:#9ed51e;fill-opacity:1;fill-rule:evenodd;stroke:none" transform="matrix(1.3333333,0,0,-1.3333333,474.99093,593.46787)" clip-path="url(#clipPath2)"/>
      <path id="path3" d="M 0,0 C 42.924,-72.279 100.96,-9.181 141.433,-21.669 93.433,31.764 71.528,-10.835 5.669,2.804 0.837,4.239 -1.36,2.292 0,0" style="fill:#295814;fill-opacity:1;fill-rule:evenodd;stroke:none" transform="matrix(1.3333333,0,0,-1.3333333,300.0976,544.57333)" clip-path="url(#clipPath4)"/>
      <path id="path5" d="m 0,0 c 0,0 -7.881,-16.811 -30.449,-22.333 0,0 17.08,14.14 30.449,22.333 m -19.262,0.906 c 0,0 -11.196,-13.79 -36.162,-20.889 0,0 24.06,16.63 36.162,20.889 M 1.512,16.049 c 0,0 -4.606,17.983 -25.747,27.619 0,0 14.142,-17.077 25.747,-27.619" style="fill:#366620;fill-opacity:1;fill-rule:evenodd;stroke:none" transform="matrix(1.3333333,0,0,-1.3333333,472.224,578.688)" clip-path="url(#clipPath6)"/>
      <path id="path7" d="M 0,0 C 42.924,-72.279 100.96,-9.181 141.433,-21.669 93.433,31.764 71.528,-10.835 5.669,2.804 0.837,4.239 -1.36,2.292 0,0 Z" style="fill:none;stroke:#ffffff;stroke-width:1;stroke-linecap:butt;stroke-linejoin:miter;stroke-miterlimit:3.864;stroke-dasharray:none;stroke-opacity:1" transform="matrix(1.3333333,0,0,-1.3333333,300.0976,544.57333)" clip-path="url(#clipPath8)"/>
      <path id="path9" d="m 0,0 c 0,-0.191 -0.202,-0.658 -0.605,-1.401 -0.382,-0.745 -0.733,-1.891 -1.052,-3.441 -0.085,-0.362 -0.223,-0.542 -0.414,-0.542 -0.149,0 -0.223,0.074 -0.223,0.223 v 0.191 c 0.064,0.446 0.096,0.839 0.096,1.179 0,1.041 -0.351,1.869 -1.052,2.485 -0.68,0.616 -1.603,0.924 -2.771,0.924 -1.296,0 -2.39,-0.383 -3.282,-1.147 -0.871,-0.764 -1.306,-1.71 -1.306,-2.835 0,-1.19 0.754,-2.539 2.261,-4.047 l 1.913,-1.912 c 1.699,-1.699 2.548,-3.409 2.548,-5.129 0,-1.975 -0.764,-3.664 -2.294,-5.066 -1.508,-1.402 -3.345,-2.102 -5.512,-2.102 -1.253,0 -2.304,0.233 -3.155,0.7 -0.105,0.063 -0.572,0.403 -1.401,1.02 -0.233,0.17 -0.467,0.254 -0.701,0.254 -0.488,0 -0.892,-0.52 -1.21,-1.56 -0.085,-0.297 -0.201,-0.446 -0.351,-0.446 -0.191,0 -0.286,0.106 -0.286,0.319 0,0.021 0.095,0.264 0.286,0.732 0.702,1.721 1.327,3.409 1.88,5.066 0.17,0.509 0.382,0.764 0.637,0.764 0.148,0 0.224,-0.074 0.224,-0.222 0,-0.043 -0.043,-0.171 -0.128,-0.383 -0.149,-0.234 -0.223,-0.765 -0.223,-1.593 0,-2.677 1.486,-4.014 4.46,-4.014 1.508,0 2.729,0.435 3.664,1.306 0.956,0.871 1.434,2.007 1.434,3.408 0,1.616 -0.733,3.102 -2.199,4.461 l -1.784,1.657 c -1.806,1.677 -2.708,3.335 -2.708,4.97 0,1.721 0.701,3.207 2.103,4.461 1.402,1.253 3.069,1.88 5.003,1.88 1.061,0 2.123,-0.224 3.185,-0.669 0.658,-0.276 1.083,-0.414 1.275,-0.414 0.403,0 0.786,0.276 1.146,0.827 0.128,0.213 0.244,0.32 0.351,0.32 C -0.063,0.224 0,0.149 0,0" style="fill:#231f20;fill-opacity:1;fill-rule:evenodd;stroke:none" transform="matrix(1.3333333,0,0,-1.3333333,358.76427,549.26347)" clip-path="url(#clipPath10)"/>
      <path id="path11" d="m 0,0 c 0,-0.064 -0.054,-0.191 -0.16,-0.383 -0.149,-0.255 -0.393,-0.774 -0.733,-1.561 l -3.664,-8.379 c -0.488,-1.126 -0.732,-1.826 -0.732,-2.103 0,-0.573 0.297,-0.86 0.891,-0.86 0.405,0 0.861,0.138 1.371,0.414 0.531,0.297 0.934,0.648 1.211,1.052 0.191,0.255 0.339,0.381 0.446,0.381 0.127,0 0.19,-0.063 0.19,-0.191 0,-0.254 -0.297,-0.637 -0.891,-1.146 -0.892,-0.764 -1.902,-1.147 -3.027,-1.147 -0.744,0 -1.359,0.192 -1.848,0.572 -0.467,0.383 -0.701,0.872 -0.701,1.467 0,0.531 0.265,1.391 0.796,2.58 l 3.314,7.392 c 0.106,0.36 0.234,0.638 0.383,0.829 0.063,0.084 0.094,0.158 0.094,0.223 0,0.191 -0.466,0.318 -1.401,0.382 -0.17,0.042 -0.255,0.117 -0.255,0.223 0,0.191 0.085,0.286 0.255,0.286 0.022,0 0.181,-0.021 0.479,-0.063 0.296,-0.043 0.774,-0.064 1.433,-0.064 0.892,0 1.519,0.075 1.879,0.223 0.213,0.085 0.361,0.127 0.446,0.127 C -0.074,0.254 0,0.169 0,0 m 2.198,5.957 c 0,-0.892 -0.414,-1.338 -1.243,-1.338 -0.425,0 -0.775,0.128 -1.051,0.383 -0.276,0.276 -0.414,0.616 -0.414,1.02 0,0.87 0.488,1.306 1.465,1.306 0.829,0 1.243,-0.457 1.243,-1.371" style="fill:#231f20;fill-opacity:1;fill-rule:evenodd;stroke:none" transform="matrix(1.3333333,0,0,-1.3333333,365.8164,560.85987)" clip-path="url(#clipPath12)"/>
      <path id="path13" d="m 0,0 c 0,-1.041 -0.436,-1.561 -1.307,-1.561 -0.297,0 -0.562,0.106 -0.796,0.319 -0.234,0.233 -0.35,0.488 -0.35,0.763 0,0.511 0.286,0.766 0.86,0.766 l 0.255,-0.032 c 0.149,-0.064 0.276,-0.107 0.382,-0.128 0.17,0 0.255,0.117 0.255,0.351 0,0.339 -0.212,0.637 -0.637,0.892 -0.404,0.276 -0.861,0.414 -1.37,0.414 -1.572,0 -3.091,-1.169 -4.557,-3.505 -1.507,-2.4 -2.261,-4.64 -2.261,-6.722 0,-1.785 0.806,-2.676 2.421,-2.676 1.21,0 2.432,0.732 3.665,2.198 0.211,0.255 0.381,0.382 0.508,0.382 0.107,0 0.16,-0.063 0.16,-0.191 0,-0.254 -0.276,-0.659 -0.829,-1.21 -1.21,-1.21 -2.57,-1.816 -4.078,-1.816 -1.381,0 -2.495,0.393 -3.344,1.178 -0.83,0.807 -1.244,1.869 -1.244,3.186 0,2.23 1.19,4.514 3.569,6.851 1.954,1.932 3.971,2.899 6.053,2.899 0.787,0 1.423,-0.223 1.913,-0.669 C -0.244,1.264 0,0.701 0,0" style="fill:#231f20;fill-opacity:1;fill-rule:evenodd;stroke:none" transform="matrix(1.3333333,0,0,-1.3333333,382.17053,563.7492)" clip-path="url(#clipPath14)"/>
      <path id="path15" d="m 0,0 c 0,-0.064 -0.054,-0.191 -0.16,-0.383 -0.149,-0.255 -0.393,-0.774 -0.733,-1.561 l -3.664,-8.379 c -0.488,-1.126 -0.732,-1.826 -0.732,-2.103 0,-0.573 0.297,-0.86 0.892,-0.86 0.403,0 0.86,0.138 1.37,0.414 0.531,0.297 0.934,0.648 1.211,1.052 0.19,0.255 0.339,0.381 0.446,0.381 0.127,0 0.19,-0.063 0.19,-0.191 0,-0.254 -0.297,-0.637 -0.891,-1.146 -0.893,-0.764 -1.902,-1.147 -3.028,-1.147 -0.743,0 -1.358,0.192 -1.847,0.572 -0.467,0.383 -0.701,0.872 -0.701,1.467 0,0.531 0.265,1.391 0.796,2.58 l 3.314,7.392 c 0.106,0.36 0.233,0.638 0.383,0.829 0.063,0.084 0.094,0.158 0.094,0.223 0,0.191 -0.466,0.318 -1.401,0.382 -0.17,0.042 -0.255,0.117 -0.255,0.223 0,0.191 0.085,0.286 0.255,0.286 0.022,0 0.181,-0.021 0.478,-0.063 0.297,-0.043 0.775,-0.064 1.434,-0.064 0.892,0 1.519,0.075 1.879,0.223 0.213,0.085 0.361,0.127 0.446,0.127 C -0.075,0.254 0,0.169 0,0 m 2.198,5.957 c 0,-0.892 -0.415,-1.338 -1.243,-1.338 -0.425,0 -0.775,0.128 -1.051,0.383 -0.276,0.276 -0.415,0.616 -0.415,1.02 0,0.87 0.49,1.306 1.466,1.306 0.828,0 1.243,-0.457 1.243,-1.371" style="fill:#231f20;fill-opacity:1;fill-rule:evenodd;stroke:none" transform="matrix(1.3333333,0,0,-1.3333333,391.13413,560.85987)" clip-path="url(#clipPath16)"/>
      <path id="path17" d="m 0,0 c 0,-0.043 -0.054,-0.191 -0.159,-0.446 -0.065,-0.17 -0.17,-0.425 -0.32,-0.765 l -7.136,-17.427 c -0.531,-1.297 -0.796,-2.134 -0.796,-2.517 0,-0.574 0.382,-0.861 1.146,-0.861 0.765,0 1.53,0.447 2.294,1.339 0.32,0.382 0.521,0.573 0.606,0.573 0.148,0 0.222,-0.074 0.222,-0.223 0,-0.276 -0.35,-0.723 -1.05,-1.338 -0.808,-0.722 -1.848,-1.083 -3.122,-1.083 -1.743,0 -2.614,0.647 -2.614,1.943 0,0.425 0.266,1.285 0.797,2.581 l 7.137,17.396 c 0.063,0.127 0.096,0.202 0.096,0.223 0,0.191 -0.203,0.287 -0.606,0.287 -0.935,0 -1.402,0.085 -1.402,0.254 0,0.128 0.096,0.192 0.287,0.192 0.191,0 0.477,-0.011 0.86,-0.032 0.404,-0.021 0.701,-0.032 0.893,-0.032 0.913,0 1.593,0.042 2.038,0.127 0.234,0.042 0.393,0.064 0.478,0.064 C -0.117,0.255 0,0.17 0,0" style="fill:#231f20;fill-opacity:1;fill-rule:evenodd;stroke:none" transform="matrix(1.3333333,0,0,-1.3333333,405.78907,549.13587)" clip-path="url(#clipPath18)"/>
      <path id="path19" d="m 0,0 c 0,-0.191 -0.201,-0.658 -0.605,-1.401 -0.381,-0.745 -0.733,-1.891 -1.051,-3.441 -0.085,-0.362 -0.223,-0.542 -0.414,-0.542 -0.149,0 -0.223,0.074 -0.223,0.223 v 0.191 c 0.063,0.446 0.095,0.839 0.095,1.179 0,1.041 -0.351,1.869 -1.051,2.485 -0.68,0.616 -1.604,0.924 -2.773,0.924 -1.294,0 -2.388,-0.383 -3.281,-1.147 -0.871,-0.764 -1.305,-1.71 -1.305,-2.835 0,-1.19 0.753,-2.539 2.261,-4.047 l 1.911,-1.912 c 1.7,-1.699 2.549,-3.409 2.549,-5.129 0,-1.975 -0.764,-3.664 -2.294,-5.066 -1.507,-1.402 -3.344,-2.102 -5.511,-2.102 -1.253,0 -2.305,0.233 -3.155,0.7 -0.106,0.063 -0.573,0.403 -1.401,1.02 -0.234,0.17 -0.467,0.254 -0.701,0.254 -0.489,0 -0.892,-0.52 -1.21,-1.56 -0.085,-0.297 -0.202,-0.446 -0.351,-0.446 -0.191,0 -0.287,0.106 -0.287,0.319 0,0.021 0.096,0.264 0.287,0.732 0.7,1.721 1.326,3.409 1.879,5.066 0.17,0.509 0.383,0.764 0.638,0.764 0.148,0 0.222,-0.074 0.222,-0.222 0,-0.043 -0.042,-0.171 -0.126,-0.383 -0.15,-0.234 -0.224,-0.765 -0.224,-1.593 0,-2.677 1.487,-4.014 4.461,-4.014 1.508,0 2.728,0.435 3.664,1.306 0.956,0.871 1.434,2.007 1.434,3.408 0,1.616 -0.734,3.102 -2.199,4.461 l -1.784,1.657 c -1.806,1.677 -2.709,3.335 -2.709,4.97 0,1.721 0.701,3.207 2.104,4.461 1.401,1.253 3.069,1.88 5.002,1.88 1.061,0 2.124,-0.224 3.185,-0.669 0.659,-0.276 1.084,-0.414 1.276,-0.414 0.403,0 0.785,0.276 1.146,0.827 0.127,0.213 0.244,0.32 0.351,0.32 C -0.063,0.224 0,0.149 0,0" style="fill:#fff200;fill-opacity:1;fill-rule:evenodd;stroke:none" transform="matrix(1.3333333,0,0,-1.3333333,358.2148,549.26347)" clip-path="url(#clipPath20)"/>
      <path id="path21" d="m 0,0 c 0,-0.064 -0.053,-0.191 -0.159,-0.383 -0.149,-0.255 -0.393,-0.774 -0.733,-1.561 l -3.664,-8.379 c -0.489,-1.126 -0.733,-1.826 -0.733,-2.103 0,-0.573 0.298,-0.86 0.892,-0.86 0.404,0 0.861,0.138 1.371,0.414 0.53,0.297 0.934,0.648 1.21,1.052 0.191,0.255 0.339,0.381 0.447,0.381 0.127,0 0.19,-0.063 0.19,-0.191 0,-0.254 -0.298,-0.637 -0.891,-1.146 -0.893,-0.764 -1.902,-1.147 -3.028,-1.147 -0.743,0 -1.359,0.192 -1.847,0.572 -0.467,0.383 -0.702,0.872 -0.702,1.467 0,0.531 0.266,1.391 0.797,2.58 l 3.314,7.392 c 0.106,0.36 0.233,0.638 0.382,0.829 0.064,0.084 0.095,0.158 0.095,0.223 0,0.191 -0.466,0.318 -1.401,0.382 -0.17,0.042 -0.255,0.117 -0.255,0.223 0,0.191 0.085,0.286 0.255,0.286 0.02,0 0.181,-0.021 0.478,-0.063 0.296,-0.043 0.775,-0.064 1.433,-0.064 0.893,0 1.52,0.075 1.88,0.223 0.212,0.085 0.361,0.127 0.446,0.127 C -0.074,0.254 0,0.169 0,0 m 2.199,5.957 c 0,-0.892 -0.415,-1.338 -1.243,-1.338 -0.425,0 -0.775,0.128 -1.052,0.383 -0.275,0.276 -0.414,0.616 -0.414,1.02 0,0.87 0.488,1.306 1.466,1.306 0.828,0 1.243,-0.457 1.243,-1.371" style="fill:#fff200;fill-opacity:1;fill-rule:evenodd;stroke:none" transform="matrix(1.3333333,0,0,-1.3333333,365.26693,560.85987)" clip-path="url(#clipPath22)"/>
      <path id="path23" d="m 0,0 c 0,-1.041 -0.435,-1.561 -1.306,-1.561 -0.297,0 -0.562,0.106 -0.797,0.319 -0.233,0.233 -0.35,0.488 -0.35,0.763 0,0.511 0.287,0.766 0.861,0.766 l 0.254,-0.032 c 0.149,-0.064 0.277,-0.107 0.383,-0.128 0.17,0 0.255,0.117 0.255,0.351 0,0.339 -0.213,0.637 -0.638,0.892 -0.403,0.276 -0.86,0.414 -1.369,0.414 -1.572,0 -3.091,-1.169 -4.557,-3.505 -1.507,-2.4 -2.261,-4.64 -2.261,-6.722 0,-1.785 0.806,-2.676 2.421,-2.676 1.211,0 2.431,0.732 3.664,2.198 0.212,0.255 0.381,0.382 0.509,0.382 0.107,0 0.16,-0.063 0.16,-0.191 0,-0.254 -0.276,-0.659 -0.829,-1.21 -1.21,-1.21 -2.57,-1.816 -4.078,-1.816 -1.381,0 -2.496,0.393 -3.345,1.178 -0.829,0.807 -1.243,1.869 -1.243,3.186 0,2.23 1.19,4.514 3.569,6.851 1.954,1.932 3.971,2.899 6.054,2.899 0.786,0 1.422,-0.223 1.911,-0.669 C -0.244,1.264 0,0.701 0,0" style="fill:#fff200;fill-opacity:1;fill-rule:evenodd;stroke:none" transform="matrix(1.3333333,0,0,-1.3333333,381.62107,563.7492)" clip-path="url(#clipPath24)"/>
      <path id="path25" d="m 0,0 c 0,-0.064 -0.054,-0.191 -0.159,-0.383 -0.15,-0.255 -0.393,-0.774 -0.733,-1.561 l -3.664,-8.379 c -0.489,-1.126 -0.733,-1.826 -0.733,-2.103 0,-0.573 0.297,-0.86 0.892,-0.86 0.404,0 0.86,0.138 1.371,0.414 0.53,0.297 0.934,0.648 1.21,1.052 0.191,0.255 0.339,0.381 0.446,0.381 0.128,0 0.191,-0.063 0.191,-0.191 0,-0.254 -0.298,-0.637 -0.891,-1.146 -0.893,-0.764 -1.902,-1.147 -3.028,-1.147 -0.743,0 -1.359,0.192 -1.847,0.572 -0.468,0.383 -0.702,0.872 -0.702,1.467 0,0.531 0.266,1.391 0.796,2.58 l 3.314,7.392 c 0.107,0.36 0.234,0.638 0.383,0.829 0.064,0.084 0.095,0.158 0.095,0.223 0,0.191 -0.466,0.318 -1.401,0.382 -0.171,0.042 -0.256,0.117 -0.256,0.223 0,0.191 0.085,0.286 0.256,0.286 0.02,0 0.18,-0.021 0.478,-0.063 0.296,-0.043 0.775,-0.064 1.433,-0.064 0.893,0 1.519,0.075 1.88,0.223 0.212,0.085 0.36,0.127 0.446,0.127 C -0.074,0.254 0,0.169 0,0 m 2.198,5.957 c 0,-0.892 -0.414,-1.338 -1.242,-1.338 -0.425,0 -0.775,0.128 -1.052,0.383 -0.276,0.276 -0.414,0.616 -0.414,1.02 0,0.87 0.488,1.306 1.466,1.306 0.828,0 1.242,-0.457 1.242,-1.371" style="fill:#fff200;fill-opacity:1;fill-rule:evenodd;stroke:none" transform="matrix(1.3333333,0,0,-1.3333333,390.58467,560.85987)" clip-path="url(#clipPath26)"/>
      <path id="path27" d="m 0,0 c 0,-0.043 -0.053,-0.191 -0.159,-0.446 -0.064,-0.17 -0.17,-0.425 -0.319,-0.765 l -7.136,-17.427 c -0.532,-1.297 -0.797,-2.134 -0.797,-2.517 0,-0.574 0.383,-0.861 1.147,-0.861 0.765,0 1.53,0.447 2.294,1.339 0.319,0.382 0.521,0.573 0.606,0.573 0.148,0 0.222,-0.074 0.222,-0.223 0,-0.276 -0.35,-0.723 -1.05,-1.338 -0.808,-0.722 -1.848,-1.083 -3.123,-1.083 -1.743,0 -2.613,0.647 -2.613,1.943 0,0.425 0.266,1.285 0.797,2.581 l 7.137,17.396 c 0.063,0.127 0.095,0.202 0.095,0.223 0,0.191 -0.202,0.287 -0.605,0.287 -0.935,0 -1.402,0.085 -1.402,0.254 0,0.128 0.095,0.192 0.287,0.192 0.19,0 0.477,-0.011 0.86,-0.032 0.404,-0.021 0.701,-0.032 0.892,-0.032 0.913,0 1.594,0.042 2.039,0.127 0.233,0.042 0.392,0.064 0.477,0.064 C -0.116,0.255 0,0.17 0,0" style="fill:#fff200;fill-opacity:1;fill-rule:evenodd;stroke:none" transform="matrix(1.3333333,0,0,-1.3333333,405.2396,549.13587)" clip-path="url(#clipPath28)"/>
      <path id="path29" d="m 0,0 c 0,1.033 -0.389,1.549 -1.168,1.549 -1.497,0 -2.859,-1.489 -4.087,-4.469 l -0.539,-1.303 c -0.524,-1.272 -0.786,-2.126 -0.786,-2.56 0,-0.599 0.396,-0.898 1.19,-0.898 1.468,0 2.792,1.13 3.976,3.391 C -0.472,-2.493 0,-1.064 0,0 m 1.819,-0.899 c 0,-1.676 -0.786,-3.287 -2.358,-4.829 -1.557,-1.527 -3.188,-2.29 -4.895,-2.29 -0.794,0 -1.468,0.21 -2.022,0.628 -0.539,0.435 -0.809,0.951 -0.809,1.551 0,0.344 0.225,1.032 0.674,2.066 l 4.739,10.825 c 0.045,0.165 0.105,0.3 0.18,0.404 0.074,0.12 0.113,0.187 0.113,0.202 0,0.165 -0.413,0.233 -1.236,0.202 -0.12,0 -0.18,0.045 -0.18,0.135 0,0.105 0.187,0.157 0.562,0.157 1.242,0 1.938,0.008 2.089,0.023 l 0.471,0.045 h 0.157 c 0.12,0 0.179,-0.045 0.179,-0.135 0,-0.045 -0.022,-0.105 -0.067,-0.18 C -0.733,7.681 -0.891,7.366 -1.055,6.962 L -3.188,1.729 C -3.339,1.37 -3.541,0.95 -3.795,0.472 c 0.09,0.089 0.164,0.156 0.225,0.201 l 0.584,0.539 c 0.539,0.495 1.227,0.742 2.066,0.742 0.793,0 1.445,-0.27 1.953,-0.809 0.525,-0.539 0.786,-1.22 0.786,-2.044" style="fill:#231f20;fill-opacity:1;fill-rule:evenodd;stroke:none" transform="matrix(1.3333333,0,0,-1.3333333,419.18093,562.01347)" clip-path="url(#clipPath30)"/>
      <path id="path31" d="m 0,0 c 0,-0.045 -0.038,-0.134 -0.113,-0.27 -0.105,-0.179 -0.277,-0.546 -0.516,-1.1 l -2.583,-5.907 c -0.345,-0.794 -0.516,-1.287 -0.516,-1.481 0,-0.406 0.208,-0.608 0.628,-0.608 0.285,0 0.607,0.098 0.966,0.292 0.374,0.21 0.658,0.457 0.854,0.741 0.134,0.18 0.239,0.27 0.314,0.27 0.09,0 0.135,-0.045 0.135,-0.135 0,-0.18 -0.21,-0.449 -0.629,-0.808 -0.629,-0.539 -1.34,-0.808 -2.134,-0.808 -0.524,0 -0.958,0.135 -1.302,0.403 -0.33,0.27 -0.495,0.615 -0.495,1.033 0,0.375 0.188,0.981 0.562,1.82 l 2.336,5.211 c 0.075,0.254 0.165,0.449 0.269,0.584 0.045,0.059 0.068,0.112 0.068,0.156 0,0.136 -0.33,0.225 -0.989,0.27 -0.12,0.03 -0.179,0.083 -0.179,0.157 0,0.135 0.059,0.202 0.179,0.202 0.015,0 0.127,-0.015 0.337,-0.045 0.209,-0.029 0.546,-0.044 1.011,-0.044 0.629,0 1.07,0.052 1.324,0.157 0.151,0.06 0.255,0.09 0.315,0.09 C -0.053,0.18 0,0.12 0,0 m 1.549,4.2 c 0,-0.629 -0.291,-0.944 -0.875,-0.944 -0.3,0 -0.547,0.091 -0.742,0.27 -0.195,0.195 -0.291,0.434 -0.291,0.719 0,0.613 0.343,0.92 1.033,0.92 0.584,0 0.875,-0.321 0.875,-0.965" style="fill:#231f20;fill-opacity:1;fill-rule:evenodd;stroke:none" transform="matrix(1.3333333,0,0,-1.3333333,429.4232,559.61827)" clip-path="url(#clipPath32)"/>
      <path id="path33" d="m 0,0 c 0,1.138 -0.51,1.706 -1.527,1.706 -1.244,0 -2.322,-0.89 -3.235,-2.672 -0.868,-1.707 -1.303,-3.308 -1.303,-4.807 0,-1.123 0.503,-1.683 1.505,-1.683 1.258,0 2.306,0.808 3.145,2.425 C -0.472,-3.204 0,-1.527 0,0 m 1.728,-1.46 c 0,-1.752 -0.8,-3.332 -2.402,-4.738 -1.258,-1.11 -2.568,-1.662 -3.931,-1.662 -0.928,0 -1.692,0.321 -2.291,0.964 -0.598,0.645 -0.898,1.476 -0.898,2.494 0,0.868 0.247,1.758 0.741,2.672 0.494,0.914 1.154,1.692 1.977,2.336 1.287,1.003 2.53,1.505 3.728,1.505 0.913,0 1.655,-0.33 2.223,-0.989 0.569,-0.658 0.853,-1.52 0.853,-2.582" style="fill:#231f20;fill-opacity:1;fill-rule:evenodd;stroke:none" transform="matrix(1.3333333,0,0,-1.3333333,439.87373,562.31293)" clip-path="url(#clipPath34)"/>
      <path id="path35" d="m 0,0 c 0,1.033 -0.39,1.549 -1.168,1.549 -1.498,0 -2.86,-1.489 -4.088,-4.469 l -0.539,-1.303 c -0.524,-1.272 -0.786,-2.126 -0.786,-2.56 0,-0.599 0.396,-0.898 1.19,-0.898 1.467,0 2.792,1.13 3.975,3.391 C -0.473,-2.493 0,-1.064 0,0 m 1.818,-0.899 c 0,-1.676 -0.786,-3.287 -2.357,-4.829 -1.558,-1.527 -3.189,-2.29 -4.897,-2.29 -0.793,0 -1.467,0.21 -2.021,0.628 -0.539,0.435 -0.809,0.951 -0.809,1.551 0,0.344 0.225,1.032 0.674,2.066 l 4.739,10.825 c 0.045,0.165 0.105,0.3 0.18,0.404 0.074,0.12 0.112,0.187 0.112,0.202 0,0.165 -0.412,0.233 -1.235,0.202 -0.12,0 -0.18,0.045 -0.18,0.135 0,0.105 0.187,0.157 0.562,0.157 1.242,0 1.938,0.008 2.088,0.023 l 0.472,0.045 h 0.157 c 0.12,0 0.179,-0.045 0.179,-0.135 0,-0.045 -0.021,-0.105 -0.066,-0.18 C -0.734,7.681 -0.892,7.366 -1.056,6.962 L -3.189,1.729 C -3.34,1.37 -3.542,0.95 -3.796,0.472 c 0.09,0.089 0.164,0.156 0.224,0.201 l 0.584,0.539 c 0.539,0.495 1.228,0.742 2.066,0.742 0.794,0 1.445,-0.27 1.954,-0.809 0.525,-0.539 0.786,-1.22 0.786,-2.044" style="fill:#ffffff;fill-opacity:1;fill-rule:evenodd;stroke:none" transform="matrix(1.3333333,0,0,-1.3333333,418.7956,562.01347)" clip-path="url(#clipPath36)"/>
      <path id="path37" d="m 0,0 c 0,-0.045 -0.038,-0.134 -0.112,-0.27 -0.106,-0.179 -0.278,-0.546 -0.517,-1.1 l -2.583,-5.907 c -0.345,-0.794 -0.516,-1.287 -0.516,-1.481 0,-0.406 0.208,-0.608 0.628,-0.608 0.285,0 0.607,0.098 0.966,0.292 0.374,0.21 0.659,0.457 0.854,0.741 0.135,0.18 0.239,0.27 0.314,0.27 0.09,0 0.135,-0.045 0.135,-0.135 0,-0.18 -0.21,-0.449 -0.629,-0.808 -0.629,-0.539 -1.34,-0.808 -2.134,-0.808 -0.524,0 -0.958,0.135 -1.302,0.403 -0.329,0.27 -0.495,0.615 -0.495,1.033 0,0.375 0.188,0.981 0.562,1.82 l 2.336,5.211 c 0.074,0.254 0.164,0.449 0.269,0.584 0.045,0.059 0.068,0.112 0.068,0.156 0,0.136 -0.33,0.225 -0.989,0.27 -0.12,0.03 -0.179,0.083 -0.179,0.157 0,0.135 0.059,0.202 0.179,0.202 0.015,0 0.128,-0.015 0.337,-0.045 0.209,-0.029 0.546,-0.044 1.011,-0.044 0.629,0 1.07,0.052 1.324,0.157 0.151,0.06 0.255,0.09 0.316,0.09 C -0.053,0.18 0,0.12 0,0 m 1.55,4.2 c 0,-0.629 -0.293,-0.944 -0.877,-0.944 -0.299,0 -0.546,0.091 -0.74,0.27 -0.196,0.195 -0.293,0.434 -0.293,0.719 0,0.613 0.344,0.92 1.033,0.92 0.584,0 0.877,-0.321 0.877,-0.965" style="fill:#ffffff;fill-opacity:1;fill-rule:evenodd;stroke:none" transform="matrix(1.3333333,0,0,-1.3333333,429.0364,559.61827)" clip-path="url(#clipPath38)"/>
      <path id="path39" d="m 0,0 c 0,1.138 -0.509,1.706 -1.526,1.706 -1.244,0 -2.322,-0.89 -3.235,-2.672 -0.868,-1.707 -1.303,-3.308 -1.303,-4.807 0,-1.123 0.502,-1.683 1.505,-1.683 1.258,0 2.306,0.808 3.145,2.425 C -0.471,-3.204 0,-1.527 0,0 m 1.729,-1.46 c 0,-1.752 -0.8,-3.332 -2.402,-4.738 -1.258,-1.11 -2.568,-1.662 -3.931,-1.662 -0.928,0 -1.692,0.321 -2.291,0.964 -0.598,0.645 -0.898,1.476 -0.898,2.494 0,0.868 0.247,1.758 0.741,2.672 0.494,0.914 1.154,1.692 1.977,2.336 1.288,1.003 2.53,1.505 3.728,1.505 0.913,0 1.655,-0.33 2.224,-0.989 0.568,-0.658 0.852,-1.52 0.852,-2.582" style="fill:#ffffff;fill-opacity:1;fill-rule:evenodd;stroke:none" transform="matrix(1.3333333,0,0,-1.3333333,439.48573,562.31293)" clip-path="url(#clipPath40)"/>
      <path id="path41" d="M 0,0 C -0.078,-3.277 -5.537,-6.482 -8.854,-3.644 -8.607,0.085 -3.148,2.333 0,0" style="fill:#9ed51e;fill-opacity:1;fill-rule:nonzero;stroke:none" transform="matrix(1.3333333,0,0,-1.3333333,446.29813,548.39107)" clip-path="url(#clipPath42)"/>
      <path id="path43" d="M 0,0 C 2.234,-1.465 2.1,-6.625 -1.294,-7.697 -3.768,-5.919 -2.972,-1.172 0,0" style="fill:#66c761;fill-opacity:1;fill-rule:nonzero;stroke:none" transform="matrix(1.3333333,0,0,-1.3333333,434.99613,540.29933)" clip-path="url(#clipPath44)"/>
      <path id="path45" d="M 0,0 C 3.752,0.632 9.288,-3.845 7.301,-8.544 3.061,-9.588 -1.485,-4.332 0,0" style="fill:#1bae4c;fill-opacity:1;fill-rule:nonzero;stroke:none" transform="matrix(1.3333333,0,0,-1.3333333,422.48307,544.79147)" clip-path="url(#clipPath46)"/>
      <path id="path47" d="m 0,0 c 0.104,-0.027 0.236,-0.037 0.396,-0.037 0.576,0 0.927,0.279 0.927,0.791 0,0.488 -0.345,0.725 -0.873,0.725 C 0.241,1.479 0.082,1.462 0,1.439 Z M -0.478,1.785 C -0.247,1.824 0.055,1.857 0.439,1.857 0.912,1.857 1.258,1.748 1.478,1.55 1.681,1.374 1.802,1.105 1.802,0.775 1.802,0.439 1.703,0.176 1.516,-0.016 1.264,-0.285 0.852,-0.422 0.385,-0.422 0.241,-0.422 0.109,-0.417 0,-0.389 v -1.484 h -0.478 z" style="fill:#295814;fill-opacity:1;fill-rule:nonzero;stroke:none" transform="matrix(1.3333333,0,0,-1.3333333,386.08333,595.78827)" clip-path="url(#clipPath48)"/>
      <path id="path49" d="M 0,0 C 0,0.312 -0.006,0.582 -0.022,0.829 H 0.4 L 0.417,0.307 H 0.439 C 0.56,0.664 0.851,0.89 1.175,0.89 1.23,0.89 1.269,0.885 1.312,0.873 V 0.417 C 1.263,0.428 1.214,0.434 1.147,0.434 0.808,0.434 0.565,0.176 0.499,-0.187 0.488,-0.253 0.478,-0.33 0.478,-0.412 V -1.83 L 0,-1.83 Z" style="fill:#295814;fill-opacity:1;fill-rule:nonzero;stroke:none" transform="matrix(1.3333333,0,0,-1.3333333,389.20827,595.8456)" clip-path="url(#clipPath50)"/>
      <path id="path51" d="m 0,0 c 0,-0.582 0.336,-1.021 0.808,-1.021 0.462,0 0.807,0.433 0.807,1.033 0,0.449 -0.224,1.021 -0.797,1.021 C 0.248,1.033 0,0.506 0,0 m 2.109,0.027 c 0,-0.982 -0.68,-1.412 -1.323,-1.412 -0.72,0 -1.274,0.528 -1.274,1.369 0,0.889 0.582,1.412 1.318,1.412 0.764,0 1.279,-0.556 1.279,-1.369" style="fill:#295814;fill-opacity:1;fill-rule:nonzero;stroke:none" transform="matrix(1.3333333,0,0,-1.3333333,391.9284,596.52)" clip-path="url(#clipPath52)"/>
      <path id="path53" d="m 0,0 c 0,0.06 -0.006,0.143 -0.022,0.203 -0.072,0.308 -0.335,0.56 -0.698,0.56 -0.5,0 -0.797,-0.44 -0.797,-1.027 0,-0.538 0.264,-0.983 0.787,-0.983 0.324,0 0.62,0.215 0.708,0.576 C -0.006,-0.604 0,-0.538 0,-0.462 Z M 0.483,2.323 V -0.89 c 0,-0.236 0.006,-0.506 0.022,-0.687 H 0.071 L 0.05,-1.115 H 0.038 c -0.148,-0.296 -0.473,-0.523 -0.906,-0.523 -0.643,0 -1.137,0.545 -1.137,1.352 -0.006,0.885 0.544,1.429 1.192,1.429 0.407,0 0.681,-0.193 0.802,-0.408 H 0 v 1.588 z" style="fill:#295814;fill-opacity:1;fill-rule:nonzero;stroke:none" transform="matrix(1.3333333,0,0,-1.3333333,397.97653,596.1828)" clip-path="url(#clipPath54)"/>
      <path id="path55" d="m 0,0 c 0,-0.274 0.005,-0.517 0.021,-0.726 h -0.428 l -0.028,0.435 h -0.01 c -0.126,-0.214 -0.407,-0.495 -0.879,-0.495 -0.417,0 -0.917,0.231 -0.917,1.165 v 1.555 h 0.483 V 0.462 c 0,-0.506 0.154,-0.846 0.593,-0.846 0.324,0 0.55,0.225 0.638,0.44 0.027,0.07 0.044,0.158 0.044,0.246 V 1.934 H 0 Z" style="fill:#295814;fill-opacity:1;fill-rule:nonzero;stroke:none" transform="matrix(1.3333333,0,0,-1.3333333,402.66147,597.31827)" clip-path="url(#clipPath56)"/>
      <path id="path57" d="m 0,0 1.203,1.564 c 0.115,0.143 0.226,0.27 0.346,0.413 V 1.988 H 0.11 v 0.39 H 2.137 L 2.132,2.076 0.945,0.532 C 0.835,0.384 0.726,0.252 0.604,0.115 V 0.104 H 2.159 V -0.281 H 0 Z" style="fill:#295814;fill-opacity:1;fill-rule:nonzero;stroke:none" transform="matrix(1.3333333,0,0,-1.3333333,403.332,597.91067)" clip-path="url(#clipPath58)"/>
      <path id="path59" d="m 305.155,395.835 h 0.483 v -2.659 h -0.483 z m 0.538,0.747 c 0.005,-0.164 -0.115,-0.297 -0.307,-0.297 -0.17,0 -0.291,0.133 -0.291,0.297 0,0.17 0.126,0.303 0.301,0.303 0.182,0 0.297,-0.133 0.297,-0.303" style="fill:#295814;fill-opacity:1;fill-rule:nonzero;stroke:none" transform="matrix(1.3333333,0,0,-1.3333333,0,1122.52)" clip-path="url(#clipPath60)"/>
      <path id="path61" d="m 0,0 c 0,-0.582 0.335,-1.021 0.808,-1.021 0.462,0 0.807,0.433 0.807,1.033 0,0.449 -0.225,1.021 -0.796,1.021 C 0.247,1.033 0,0.506 0,0 m 2.109,0.027 c 0,-0.982 -0.68,-1.412 -1.323,-1.412 -0.72,0 -1.274,0.528 -1.274,1.369 0,0.889 0.582,1.412 1.318,1.412 0.764,0 1.279,-0.556 1.279,-1.369" style="fill:#295814;fill-opacity:1;fill-rule:nonzero;stroke:none" transform="matrix(1.3333333,0,0,-1.3333333,408.9844,596.52)" clip-path="url(#clipPath62)"/>
      <path id="path63" d="M 0,0 C 0,0.275 -0.006,0.5 -0.022,0.72 H 0.406 L 0.434,0.28 h 0.01 c 0.132,0.253 0.44,0.5 0.879,0.5 0.368,0 0.94,-0.219 0.94,-1.132 V -1.939 H 1.779 v 1.533 C 1.779,0.021 1.62,0.379 1.164,0.379 0.846,0.379 0.599,0.154 0.516,-0.115 0.494,-0.176 0.483,-0.258 0.483,-0.34 V -1.939 H 0 Z" style="fill:#295814;fill-opacity:1;fill-rule:nonzero;stroke:none" transform="matrix(1.3333333,0,0,-1.3333333,412.61587,595.69973)" clip-path="url(#clipPath64)"/>
      <path id="path65" d="m 312.515,395.835 h 0.483 v -2.659 h -0.483 z m 0.538,0.747 c 0.005,-0.164 -0.116,-0.297 -0.308,-0.297 -0.17,0 -0.291,0.133 -0.291,0.297 0,0.17 0.126,0.303 0.302,0.303 0.181,0 0.297,-0.133 0.297,-0.303" style="fill:#295814;fill-opacity:1;fill-rule:nonzero;stroke:none" transform="matrix(1.3333333,0,0,-1.3333333,0,1122.52)" clip-path="url(#clipPath66)"/>
      <path id="path67" d="m 0,0 c 0.094,-0.017 0.23,-0.021 0.4,-0.021 0.496,0 0.952,0.18 0.952,0.718 0,0.506 -0.435,0.715 -0.956,0.715 H 0 Z m 0,1.773 h 0.434 c 0.505,0 0.802,0.264 0.802,0.622 0,0.433 -0.33,0.604 -0.813,0.604 C 0.203,2.999 0.077,2.982 0,2.967 Z M -0.479,3.29 c 0.209,0.044 0.54,0.077 0.875,0.077 0.477,0 0.785,-0.082 1.016,-0.269 C 1.604,2.955 1.719,2.735 1.719,2.444 1.719,2.088 1.483,1.773 1.093,1.631 V 1.62 C 1.444,1.532 1.856,1.241 1.856,0.691 1.856,0.373 1.73,0.131 1.543,-0.05 1.285,-0.285 0.868,-0.396 0.264,-0.396 c -0.33,0 -0.582,0.023 -0.743,0.044 z" style="fill:#295814;fill-opacity:1;fill-rule:nonzero;stroke:none" transform="matrix(1.3333333,0,0,-1.3333333,420.61587,597.80133)" clip-path="url(#clipPath68)"/>
      <path id="path69" d="m 317.949,395.835 h 0.483 v -2.659 h -0.483 z m 0.538,0.747 c 0.006,-0.164 -0.115,-0.297 -0.307,-0.297 -0.171,0 -0.291,0.133 -0.291,0.297 0,0.17 0.126,0.303 0.301,0.303 0.182,0 0.297,-0.133 0.297,-0.303" style="fill:#295814;fill-opacity:1;fill-rule:nonzero;stroke:none" transform="matrix(1.3333333,0,0,-1.3333333,0,1122.52)" clip-path="url(#clipPath70)"/>
      <path id="path71" d="m 0,0 c 0,-0.582 0.336,-1.021 0.808,-1.021 0.462,0 0.807,0.433 0.807,1.033 0,0.449 -0.224,1.021 -0.797,1.021 C 0.248,1.033 0,0.506 0,0 m 2.109,0.027 c 0,-0.982 -0.68,-1.412 -1.323,-1.412 -0.72,0 -1.274,0.528 -1.274,1.369 0,0.889 0.582,1.412 1.318,1.412 0.764,0 1.279,-0.556 1.279,-1.369" style="fill:#295814;fill-opacity:1;fill-rule:nonzero;stroke:none" transform="matrix(1.3333333,0,0,-1.3333333,426.04293,596.52)" clip-path="url(#clipPath72)"/>
      <path id="path73" d="m 322.256,397.076 h 0.483 v -3.9 h -0.483 z" style="fill:#295814;fill-opacity:1;fill-rule:nonzero;stroke:none" transform="matrix(1.3333333,0,0,-1.3333333,0,1122.52)" clip-path="url(#clipPath74)"/>
      <path id="path75" d="m 0,0 c 0,-0.582 0.335,-1.021 0.808,-1.021 0.462,0 0.807,0.433 0.807,1.033 0,0.449 -0.225,1.021 -0.796,1.021 C 0.247,1.033 0,0.506 0,0 m 2.109,0.027 c 0,-0.982 -0.68,-1.412 -1.323,-1.412 -0.72,0 -1.274,0.528 -1.274,1.369 0,0.889 0.582,1.412 1.318,1.412 0.764,0 1.279,-0.556 1.279,-1.369" style="fill:#295814;fill-opacity:1;fill-rule:nonzero;stroke:none" transform="matrix(1.3333333,0,0,-1.3333333,431.79947,596.52)" clip-path="url(#clipPath76)"/>
      <path id="path77" d="M 0,0 C 0,0.083 -0.005,0.154 -0.027,0.221 -0.115,0.5 -0.352,0.73 -0.703,0.73 c -0.461,0 -0.791,-0.388 -0.791,-1.003 0,-0.523 0.264,-0.957 0.786,-0.957 0.297,0 0.565,0.187 0.67,0.495 C -0.011,-0.652 0,-0.56 0,-0.477 Z M 0.5,1.05 C 0.489,0.857 0.479,0.643 0.479,0.319 v -1.544 c 0,-0.609 -0.122,-0.982 -0.379,-1.213 -0.259,-0.242 -0.632,-0.319 -0.967,-0.319 -0.32,0 -0.671,0.077 -0.885,0.22 l 0.121,0.367 c 0.176,-0.109 0.45,-0.208 0.78,-0.208 0.495,0 0.857,0.259 0.857,0.929 v 0.297 h -0.011 c -0.148,-0.248 -0.434,-0.446 -0.846,-0.446 -0.66,0 -1.131,0.561 -1.131,1.297 0,0.901 0.587,1.411 1.197,1.411 0.462,0 0.714,-0.241 0.829,-0.462 H 0.056 L 0.077,1.05 Z" style="fill:#295814;fill-opacity:1;fill-rule:nonzero;stroke:none" transform="matrix(1.3333333,0,0,-1.3333333,437.81773,596.13987)" clip-path="url(#clipPath78)"/>
      <path id="path79" d="m 329.614,395.835 h 0.483 v -2.659 h -0.483 z m 0.538,0.747 c 0.005,-0.164 -0.115,-0.297 -0.307,-0.297 -0.17,0 -0.291,0.133 -0.291,0.297 0,0.17 0.126,0.303 0.301,0.303 0.182,0 0.297,-0.133 0.297,-0.303" style="fill:#295814;fill-opacity:1;fill-rule:nonzero;stroke:none" transform="matrix(1.3333333,0,0,-1.3333333,0,1122.52)" clip-path="url(#clipPath80)"/>
      <path id="path81" d="m 0,0 c -0.126,-0.066 -0.406,-0.154 -0.764,-0.154 -0.801,0 -1.323,0.544 -1.323,1.357 0,0.818 0.56,1.412 1.428,1.412 0.286,0 0.538,-0.072 0.671,-0.138 L -0.099,2.104 c -0.115,0.066 -0.297,0.126 -0.56,0.126 -0.61,0 -0.94,-0.451 -0.94,-1.005 0,-0.616 0.396,-0.995 0.923,-0.995 0.276,0 0.456,0.072 0.594,0.132 z" style="fill:#295814;fill-opacity:1;fill-rule:nonzero;stroke:none" transform="matrix(1.3333333,0,0,-1.3333333,443.72787,598.1528)" clip-path="url(#clipPath82)"/>
      <path id="path83" d="m 0,0 h 0.483 v -1.658 h 0.011 c 0.077,0.137 0.197,0.258 0.346,0.34 0.143,0.082 0.313,0.137 0.495,0.137 0.356,0 0.928,-0.219 0.928,-1.137 V -3.9 H 1.779 v 1.527 c 0,0.429 -0.159,0.791 -0.615,0.791 -0.313,0 -0.56,-0.219 -0.648,-0.482 C 0.488,-2.131 0.483,-2.203 0.483,-2.296 V -3.9 H 0 Z" style="fill:#295814;fill-opacity:1;fill-rule:nonzero;stroke:none" transform="matrix(1.3333333,0,0,-1.3333333,444.48693,593.0852)" clip-path="url(#clipPath84)"/>
      <path id="path85" d="M 0,0 C 0.005,0.308 -0.127,0.785 -0.671,0.785 -1.159,0.785 -1.374,0.336 -1.412,0 Z M -1.418,-0.346 C -1.406,-1 -0.989,-1.27 -0.506,-1.27 c 0.346,0 0.555,0.061 0.736,0.139 l 0.082,-0.347 c -0.169,-0.077 -0.46,-0.165 -0.884,-0.165 -0.819,0 -1.307,0.539 -1.307,1.34 0,0.803 0.473,1.435 1.247,1.435 0.867,0 1.099,-0.764 1.099,-1.253 0,-0.099 -0.012,-0.176 -0.017,-0.225 z" style="fill:#295814;fill-opacity:1;fill-rule:nonzero;stroke:none" transform="matrix(1.3333333,0,0,-1.3333333,450.806,596.16853)" clip-path="url(#clipPath86)"/>
      <path id="path87" d="M 0,0 C 0,0 -1.161,-0.454 -2.516,0.319 -2.516,0.319 -1.03,0.218 0,0" style="fill:#ffffff;fill-opacity:1;fill-rule:nonzero;stroke:none" transform="matrix(1.3333333,0,0,-1.3333333,430.06387,554.72253)" clip-path="url(#clipPath88)"/>
      <path id="path89" d="M 0,0 C 0,0 -1.184,-0.155 -2.729,0.653 -2.729,0.653 -0.787,0.351 0,0" style="fill:#ffffff;fill-opacity:1;fill-rule:nonzero;stroke:none" transform="matrix(1.3333333,0,0,-1.3333333,428.86853,553.47573)" clip-path="url(#clipPath90)"/>
      <path id="path91" d="M 0,0 C 0,0 -0.975,-0.212 -2.228,0.491 -2.228,0.491 -0.745,0.349 0,0" style="fill:#ffffff;fill-opacity:1;fill-rule:nonzero;stroke:none" transform="matrix(1.3333333,0,0,-1.3333333,427.2812,551.72053)" clip-path="url(#clipPath92)"/>
      <path id="path93" d="M 0,0 C 0,0 0.965,-0.555 1.706,-0.627 1.706,-0.627 0.829,-0.034 0,0" style="fill:#ffffff;fill-opacity:1;fill-rule:nonzero;stroke:none" transform="matrix(1.3333333,0,0,-1.3333333,423.8672,549.6424)" clip-path="url(#clipPath94)"/>
      <path id="path95" d="M 0,0 C 0,0 0.504,-0.439 1.208,-0.422 1.208,-0.422 0.595,-0.04 0,0" style="fill:#ffffff;fill-opacity:1;fill-rule:nonzero;stroke:none" transform="matrix(1.3333333,0,0,-1.3333333,423.55467,548.37027)" clip-path="url(#clipPath96)"/>
      <path id="path97" d="M 0,0 C 0,0 0.294,-0.383 0.868,-0.72 0.868,-0.72 0.519,-0.227 0,0" style="fill:#ffffff;fill-opacity:1;fill-rule:nonzero;stroke:none" transform="matrix(1.3333333,0,0,-1.3333333,423.16667,546.9504)" clip-path="url(#clipPath98)"/>
      <path id="path99" d="m 0,0 c 0,0 2.46,-3.364 3.848,-4.908 1.388,-1.544 1.834,-1.595 1.834,-1.595 0,0 0.007,0.447 -1.335,2.03 C 3.004,-2.89 0,0 0,0" style="fill:#ffffff;fill-opacity:1;fill-rule:nonzero;stroke:none" transform="matrix(1.3333333,0,0,-1.3333333,423.21747,545.78827)" clip-path="url(#clipPath100)"/>
      <path id="path101" d="M 0,0 C 0,0 0.607,1.09 0.022,2.536 0.022,2.536 -0.079,1.05 0,0" style="fill:#ffffff;fill-opacity:1;fill-rule:nonzero;stroke:none" transform="matrix(1.3333333,0,0,-1.3333333,431.15107,553.77267)" clip-path="url(#clipPath102)"/>
      <path id="path103" d="M 0,0 C 0,0 0.312,1.152 -0.281,2.791 -0.281,2.791 -0.243,0.827 0,0" style="fill:#ffffff;fill-opacity:1;fill-rule:nonzero;stroke:none" transform="matrix(1.3333333,0,0,-1.3333333,430.0768,552.4204)" clip-path="url(#clipPath104)"/>
      <path id="path105" d="M 0,0 C 0,0 0.341,0.936 -0.187,2.273 -0.187,2.273 -0.245,0.784 0,0" style="fill:#ffffff;fill-opacity:1;fill-rule:nonzero;stroke:none" transform="matrix(1.3333333,0,0,-1.3333333,428.54947,550.61173)" clip-path="url(#clipPath106)"/>
      <path id="path107" d="m 0,0 c 0,0 0.42,-1.03 0.392,-1.775 0,0 -0.47,0.949 -0.392,1.775" style="fill:#ffffff;fill-opacity:1;fill-rule:nonzero;stroke:none" transform="matrix(1.3333333,0,0,-1.3333333,426.9492,546.94973)" clip-path="url(#clipPath108)"/>
      <path id="path109" d="M 0,0 C 0,0 0.368,-0.558 0.258,-1.254 0.258,-1.254 -0.04,-0.595 0,0" style="fill:#ffffff;fill-opacity:1;fill-rule:nonzero;stroke:none" transform="matrix(1.3333333,0,0,-1.3333333,425.7292,546.4692)" clip-path="url(#clipPath110)"/>
      <path id="path111" d="M 0,0 C 0,0 0.34,-0.343 0.597,-0.957 0.597,-0.957 0.155,-0.543 0,0" style="fill:#ffffff;fill-opacity:1;fill-rule:nonzero;stroke:none" transform="matrix(1.3333333,0,0,-1.3333333,424.37507,545.89493)" clip-path="url(#clipPath112)"/>
      <path id="path113" d="M 0,0 C 0,0 -0.782,0.444 -0.963,1.554 -0.963,1.554 -0.346,0.676 0,0" style="fill:#ffffff;fill-opacity:1;fill-rule:nonzero;stroke:none" transform="matrix(1.3333333,0,0,-1.3333333,433.03253,548.84547)" clip-path="url(#clipPath114)"/>
      <path id="path115" d="M 0,0 C 0,0 -0.624,0.593 -0.873,1.825 -0.873,1.825 -0.16,0.6 0,0" style="fill:#ffffff;fill-opacity:1;fill-rule:nonzero;stroke:none" transform="matrix(1.3333333,0,0,-1.3333333,433.1888,547.60987)" clip-path="url(#clipPath116)"/>
      <path id="path117" d="M 0,0 C 0,0 -0.561,0.449 -0.735,1.471 -0.735,1.471 -0.143,0.575 0,0" style="fill:#ffffff;fill-opacity:1;fill-rule:nonzero;stroke:none" transform="matrix(1.3333333,0,0,-1.3333333,433.45187,545.9236)" clip-path="url(#clipPath118)"/>
      <path id="path119" d="M 0,0 C 0,0 0.127,-0.793 0.423,-1.24 0.423,-1.24 0.357,-0.48 0,0" style="fill:#ffffff;fill-opacity:1;fill-rule:nonzero;stroke:none" transform="matrix(1.3333333,0,0,-1.3333333,433.0664,543.06813)" clip-path="url(#clipPath120)"/>
      <path id="path121" d="M 0,0 C 0,0 -0.018,-0.481 0.312,-0.869 0.312,-0.869 0.247,-0.351 0,0" style="fill:#ffffff;fill-opacity:1;fill-rule:nonzero;stroke:none" transform="matrix(1.3333333,0,0,-1.3333333,433.638,542.31627)" clip-path="url(#clipPath122)"/>
      <path id="path123" d="m 0,0 c 0,0 -0.081,-0.338 -0.01,-0.813 0,0 0.117,0.42 0.01,0.813" style="fill:#ffffff;fill-opacity:1;fill-rule:nonzero;stroke:none" transform="matrix(1.3333333,0,0,-1.3333333,434.25787,541.45493)" clip-path="url(#clipPath124)"/>
      <path id="path125" d="m 0,0 c 0,0 -0.768,-2.905 -1.004,-4.383 -0.234,-1.479 -0.061,-1.751 -0.061,-1.751 0,0 0.254,0.198 0.532,1.669 C -0.256,-2.994 0,0 0,0" style="fill:#ffffff;fill-opacity:1;fill-rule:nonzero;stroke:none" transform="matrix(1.3333333,0,0,-1.3333333,434.93093,540.9556)" clip-path="url(#clipPath126)"/>
      <path id="path127" d="M 0,0 C 0,0 0.886,0.154 1.431,1.139 1.431,1.139 0.553,0.52 0,0" style="fill:#ffffff;fill-opacity:1;fill-rule:nonzero;stroke:none" transform="matrix(1.3333333,0,0,-1.3333333,434.05733,549.02387)" clip-path="url(#clipPath128)"/>
      <path id="path129" d="M 0,0 C 0,0 0.787,0.348 1.436,1.424 1.436,1.424 0.353,0.511 0,0" style="fill:#ffffff;fill-opacity:1;fill-rule:nonzero;stroke:none" transform="matrix(1.3333333,0,0,-1.3333333,434.32813,547.8084)" clip-path="url(#clipPath130)"/>
      <path id="path131" d="M 0,0 C 0,0 0.679,0.234 1.189,1.137 1.189,1.137 0.328,0.493 0,0" style="fill:#ffffff;fill-opacity:1;fill-rule:nonzero;stroke:none" transform="matrix(1.3333333,0,0,-1.3333333,434.6484,546.132)" clip-path="url(#clipPath132)"/>
      <path id="path133" d="m 0,0 c 0,0 -0.387,-0.703 -0.817,-1.025 0,0 0.319,0.693 0.817,1.025" style="fill:#ffffff;fill-opacity:1;fill-rule:nonzero;stroke:none" transform="matrix(1.3333333,0,0,-1.3333333,435.974,543.57333)" clip-path="url(#clipPath134)"/>
      <path id="path135" d="m 0,0 c 0,0 -0.146,-0.459 -0.586,-0.713 0,0 0.234,0.466 0.586,0.713" style="fill:#ffffff;fill-opacity:1;fill-rule:nonzero;stroke:none" transform="matrix(1.3333333,0,0,-1.3333333,435.69013,542.6724)" clip-path="url(#clipPath136)"/>
      <path id="path137" d="m 0,0 c 0,0 -0.038,-0.346 -0.266,-0.769 0,0 0.032,0.435 0.266,0.769" style="fill:#ffffff;fill-opacity:1;fill-rule:nonzero;stroke:none" transform="matrix(1.3333333,0,0,-1.3333333,435.3972,541.6528)" clip-path="url(#clipPath138)"/>
      <path id="path139" d="M 0,0 C 0,0 -0.042,1.12 0.896,2.045 0.896,2.045 0.433,0.812 0,0" style="fill:#ffffff;fill-opacity:1;fill-rule:nonzero;stroke:none" transform="matrix(1.3333333,0,0,-1.3333333,436.49347,551.96147)" clip-path="url(#clipPath140)"/>
      <path id="path141" d="M 0,0 C 0,0 0.191,1.051 1.204,2.128 1.204,2.128 0.471,0.566 0,0" style="fill:#ffffff;fill-opacity:1;fill-rule:nonzero;stroke:none" transform="matrix(1.3333333,0,0,-1.3333333,437.74613,551.30973)" clip-path="url(#clipPath142)"/>
      <path id="path143" d="M 0,0 C 0,0 0.093,0.89 0.95,1.749 0.95,1.749 0.457,0.53 0,0" style="fill:#ffffff;fill-opacity:1;fill-rule:nonzero;stroke:none" transform="matrix(1.3333333,0,0,-1.3333333,439.48693,550.4744)" clip-path="url(#clipPath144)"/>
      <path id="path145" d="m 0,0 c 0,0 -0.671,-0.658 -0.917,-1.267 0,0 0.676,0.572 0.917,1.267" style="fill:#ffffff;fill-opacity:1;fill-rule:nonzero;stroke:none" transform="matrix(1.3333333,0,0,-1.3333333,441.94533,548.18147)" clip-path="url(#clipPath146)"/>
      <path id="path147" d="m 0,0 c 0,0 -0.463,-0.3 -0.634,-0.903 0,0 0.449,0.409 0.634,0.903" style="fill:#ffffff;fill-opacity:1;fill-rule:nonzero;stroke:none" transform="matrix(1.3333333,0,0,-1.3333333,442.98827,548.28827)" clip-path="url(#clipPath148)"/>
      <path id="path149" d="m 0,0 c 0,0 -0.366,-0.138 -0.771,-0.527 0,0 0.464,0.153 0.771,0.527" style="fill:#ffffff;fill-opacity:1;fill-rule:nonzero;stroke:none" transform="matrix(1.3333333,0,0,-1.3333333,444.1628,548.37413)" clip-path="url(#clipPath150)"/>
      <path id="path151" d="m 0,0 c 0,0 -3.183,-1.106 -4.711,-1.834 -1.527,-0.729 -1.682,-1.091 -1.682,-1.091 0,0 0.335,-0.138 1.881,0.54 C -2.966,-1.707 0,0 0,0" style="fill:#ffffff;fill-opacity:1;fill-rule:nonzero;stroke:none" transform="matrix(1.3333333,0,0,-1.3333333,445.02733,548.75693)" clip-path="url(#clipPath152)"/>
      <path id="path153" d="M 0,0 C 0,0 0.666,-0.835 1.911,-0.76 1.911,-0.76 0.814,-0.24 0,0" style="fill:#ffffff;fill-opacity:1;fill-rule:nonzero;stroke:none" transform="matrix(1.3333333,0,0,-1.3333333,436.9284,553.16253)" clip-path="url(#clipPath154)"/>
      <path id="path155" d="M 0,0 C 0,0 0.79,-0.603 2.183,-0.578 2.183,-0.578 0.688,-0.036 0,0" style="fill:#ffffff;fill-opacity:1;fill-rule:nonzero;stroke:none" transform="matrix(1.3333333,0,0,-1.3333333,438.2292,552.64493)" clip-path="url(#clipPath156)"/>
      <path id="path157" d="M 0,0 C 0,0 0.62,-0.564 1.768,-0.506 1.768,-0.506 0.657,-0.021 0,0" style="fill:#ffffff;fill-opacity:1;fill-rule:nonzero;stroke:none" transform="matrix(1.3333333,0,0,-1.3333333,439.99347,551.8768)" clip-path="url(#clipPath158)"/>
      <path id="path159" d="m 0,0 c 0,0 -0.889,-0.056 -1.443,0.186 0,0 0.839,0.122 1.443,-0.186" style="fill:#ffffff;fill-opacity:1;fill-rule:nonzero;stroke:none" transform="matrix(1.3333333,0,0,-1.3333333,443.1784,551.58773)" clip-path="url(#clipPath160)"/>
      <path id="path161" d="m 0,0 c 0,0 -0.518,-0.149 -1.014,0.148 0,0 0.575,0.06 1.014,-0.148" style="fill:#ffffff;fill-opacity:1;fill-rule:nonzero;stroke:none" transform="matrix(1.3333333,0,0,-1.3333333,443.85813,550.69253)" clip-path="url(#clipPath162)"/>
      <path id="path163" d="m 0,0 c 0,0 -0.347,-0.188 -0.878,-0.227 0,0 0.427,0.254 0.878,0.227" style="fill:#ffffff;fill-opacity:1;fill-rule:nonzero;stroke:none" transform="matrix(1.3333333,0,0,-1.3333333,444.64453,549.71013)" clip-path="url(#clipPath164)"/>
    </g>
  </g>
</svg>